<svg xmlns="http://www.w3.org/2000/svg" xmlns:xlink="http://www.w3.org/1999/xlink"><defs><path id="laqha" d="M493.03 7086.95c.162-.547 0-.95-.779-.95h-2.577c-.656 0-.958.346-1.12.73 0 0-1.312 3.199-3.167 5.272-.6.6-.875.792-1.203.792-.162 0-.411-.192-.411-.739v-5.106c0-.656-.184-.949-.727-.949h-4.051c-.411 0-.656.306-.656.59 0 .622.927.766 1.024 2.516v3.798c0 .831-.15.984-.477.984-.875 0-3.002-3.211-4.262-6.886-.253-.713-.503-1.002-1.163-1.002h-2.577c-.735 0-.884.346-.884.73 0 .683.875 4.074 4.073 8.554 2.13 3.058 5.132 4.716 7.862 4.716 1.64 0 1.842-.368 1.842-1.002 0-2.922-.149-3.198.674-3.198.38 0 1.037.192 2.568 1.667 1.75 1.75 2.039 2.533 3.019 2.533h2.576c.735 0 1.107-.368.893-1.094-.49-1.527-3.802-4.668-3.95-4.878-.381-.49-.272-.709 0-1.146.004-.005 3.15-4.432 3.473-5.933z"/></defs><symbol id="diamond" viewBox="0 0 33 33"><g><g>
	<path d="M16.5,30.5c-0.147,0-0.288-0.065-0.382-0.178l-16-19C-0.032,11.144-0.04,10.886,0.1,10.7l6-8   c0.094-0.126,0.243-0.2,0.4-0.2h20c0.157,0,0.306,0.074,0.4,0.2l6,8c0.14,0.186,0.132,0.444-0.018,0.622l-16,19   C16.788,30.435,16.647,30.5,16.5,30.5z M1.139,10.982L16.5,29.224l15.361-18.242L26.25,3.5H6.75L1.139,10.982z" data-original="#000000" class="active-path" data-old_color="#000000"/>
	<path d="M32.5,11.5h-32C0.224,11.5,0,11.277,0,11s0.224-0.5,0.5-0.5h32c0.276,0,0.5,0.224,0.5,0.5S32.776,11.5,32.5,11.5z" data-original="#000000" class="active-path" data-old_color="#000000"/>
	<path d="M16.5,30.5c-0.05,0-0.101-0.007-0.15-0.023c-0.264-0.083-0.41-0.364-0.326-0.627l6-19c0.083-0.263,0.366-0.411,0.627-0.326   c0.264,0.083,0.41,0.364,0.326,0.627l-6,19C16.91,30.364,16.712,30.5,16.5,30.5z" data-original="#000000" class="active-path" data-old_color="#000000"/>
	<path d="M16.5,30.5c-0.212,0-0.41-0.136-0.477-0.35l-6-19c-0.083-0.263,0.063-0.544,0.326-0.627   c0.264-0.085,0.544,0.063,0.627,0.326l6,19c0.083,0.263-0.063,0.544-0.326,0.627C16.601,30.493,16.55,30.5,16.5,30.5z" data-original="#000000" class="active-path" data-old_color="#000000"/>
	<path d="M10.5,11.5c-0.184,0-0.36-0.101-0.448-0.276l-4-8C5.929,2.977,6.029,2.677,6.276,2.553C6.524,2.43,6.823,2.53,6.947,2.777   l4,8c0.124,0.247,0.023,0.547-0.224,0.671C10.652,11.483,10.576,11.5,10.5,11.5z" data-original="#000000" class="active-path" data-old_color="#000000"/>
	<path d="M10.5,11.5c-0.104,0-0.209-0.033-0.299-0.1c-0.221-0.166-0.266-0.479-0.1-0.7l6-8c0.166-0.221,0.479-0.265,0.7-0.1   c0.221,0.166,0.266,0.479,0.1,0.7l-6,8C10.802,11.431,10.652,11.5,10.5,11.5z" data-original="#000000" class="active-path" data-old_color="#000000"/>
	<path d="M22.5,11.5c-0.152,0-0.302-0.069-0.4-0.2l-6-8c-0.166-0.221-0.121-0.534,0.1-0.7c0.22-0.167,0.534-0.122,0.7,0.1l6,8   c0.166,0.221,0.121,0.534-0.1,0.7C22.71,11.468,22.605,11.5,22.5,11.5z" data-original="#000000" class="active-path" data-old_color="#000000"/>
	<path d="M22.5,11.5c-0.075,0-0.151-0.017-0.223-0.053c-0.247-0.124-0.347-0.424-0.224-0.671l4-8   c0.124-0.247,0.423-0.347,0.671-0.224c0.247,0.124,0.347,0.424,0.224,0.671l-4,8C22.859,11.399,22.683,11.5,22.5,11.5z" data-original="#000000" class="active-path" data-old_color="#000000"/>
</g></g> </symbol><symbol id="glasses" viewBox="0 0 60 60"><g><path d="M59,28h-2.18c-0.951-5.666-5.85-10-11.748-10c-5.822,0-10.696,4.119-11.825,9.579c-0.971-0.814-2.079-1.246-3.247-1.246  c-1.167,0-2.274,0.432-3.245,1.245C25.639,22.118,20.825,18,15.072,18C8.756,18,3.565,22.851,3.051,29H1c-0.553,0-1,0.448-1,1  s0.447,1,1,1h2.051c0.514,6.149,5.705,11,12.021,11c6.467,0,11.736-5.207,11.911-11.671c0.853-1.285,1.915-1.996,3.017-1.996  c1.102,0,2.164,0.712,3.017,1.996C33.195,36.793,38.528,42,45.072,42C51.649,42,57,36.617,57,30h2c0.553,0,1-0.448,1-1  S59.553,28,59,28z M15.072,40C9.519,40,5,35.514,5,30s4.519-10,10.072-10C20.64,20,25,24.393,25,30S20.64,40,15.072,40z M45.072,40  C39.519,40,35,35.514,35,30s4.519-10,10.072-10C50.64,20,55,24.393,55,30S50.64,40,45.072,40z" data-original="#000000" class="active-path" data-old_color="#000000"/></g> </symbol><symbol id="pencil" viewBox="0 0 55.25 55.25"><g><path d="M52.618,2.631c-3.51-3.508-9.219-3.508-12.729,0L3.827,38.693C3.81,38.71,3.8,38.731,3.785,38.749  c-0.021,0.024-0.039,0.05-0.058,0.076c-0.053,0.074-0.094,0.153-0.125,0.239c-0.009,0.026-0.022,0.049-0.029,0.075  c-0.003,0.01-0.009,0.02-0.012,0.03l-3.535,14.85c-0.016,0.067-0.02,0.135-0.022,0.202C0.004,54.234,0,54.246,0,54.259  c0.001,0.114,0.026,0.225,0.065,0.332c0.009,0.025,0.019,0.047,0.03,0.071c0.049,0.107,0.11,0.21,0.196,0.296  c0.095,0.095,0.207,0.168,0.328,0.218c0.121,0.05,0.25,0.075,0.379,0.075c0.077,0,0.155-0.009,0.231-0.027l14.85-3.535  c0.027-0.006,0.051-0.021,0.077-0.03c0.034-0.011,0.066-0.024,0.099-0.039c0.072-0.033,0.139-0.074,0.201-0.123  c0.024-0.019,0.049-0.033,0.072-0.054c0.008-0.008,0.018-0.012,0.026-0.02l36.063-36.063C56.127,11.85,56.127,6.14,52.618,2.631z   M51.204,4.045c2.488,2.489,2.7,6.397,0.65,9.137l-9.787-9.787C44.808,1.345,48.716,1.557,51.204,4.045z M46.254,18.895l-9.9-9.9  l1.414-1.414l9.9,9.9L46.254,18.895z M4.961,50.288c-0.391-0.391-1.023-0.391-1.414,0L2.79,51.045l2.554-10.728l4.422-0.491  l-0.569,5.122c-0.004,0.038,0.01,0.073,0.01,0.11c0,0.038-0.014,0.072-0.01,0.11c0.004,0.033,0.021,0.06,0.028,0.092  c0.012,0.058,0.029,0.111,0.05,0.165c0.026,0.065,0.057,0.124,0.095,0.181c0.031,0.046,0.062,0.087,0.1,0.127  c0.048,0.051,0.1,0.094,0.157,0.134c0.045,0.031,0.088,0.06,0.138,0.084C9.831,45.982,9.9,46,9.972,46.017  c0.038,0.009,0.069,0.03,0.108,0.035c0.036,0.004,0.072,0.006,0.109,0.006c0,0,0.001,0,0.001,0c0,0,0.001,0,0.001,0h0.001  c0,0,0.001,0,0.001,0c0.036,0,0.073-0.002,0.109-0.006l5.122-0.569l-0.491,4.422L4.204,52.459l0.757-0.757  C5.351,51.312,5.351,50.679,4.961,50.288z M17.511,44.809L39.889,22.43c0.391-0.391,0.391-1.023,0-1.414s-1.023-0.391-1.414,0  L16.097,43.395l-4.773,0.53l0.53-4.773l22.38-22.378c0.391-0.391,0.391-1.023,0-1.414s-1.023-0.391-1.414,0L10.44,37.738  l-3.183,0.354L34.94,10.409l9.9,9.9L17.157,47.992L17.511,44.809z M49.082,16.067l-9.9-9.9l1.415-1.415l9.9,9.9L49.082,16.067z" data-original="#000000" class="active-path" data-old_color="#000000"/></g> </symbol><symbol id="ruler" viewBox="0 0 512.002 512.002"><g><g>
	<g>
		<path d="M509.502,104.908L407.097,2.502c-3.337-3.337-8.73-3.337-12.067,0L2.502,395.03c-3.337,3.337-3.337,8.73,0,12.067    l102.405,102.405c1.596,1.604,3.772,2.5,6.033,2.5c2.261,0,4.429-0.896,6.033-2.5l392.527-392.527    c1.604-1.596,2.5-3.772,2.5-6.033C512.002,108.68,511.106,106.512,509.502,104.908z M110.941,491.402l-90.338-90.338    L401.063,20.603l90.338,90.338L110.941,491.402z" data-original="#000000" class="active-path" data-old_color="#000000"/>
	</g>
</g><g>
	<g>
		<path d="M409.631,76.797c-14.115,0-25.601,11.486-25.601,25.601c0,14.115,11.486,25.601,25.601,25.601    c14.115,0,25.601-11.486,25.601-25.601C435.232,88.284,423.746,76.797,409.631,76.797z M409.631,110.932    c-4.711,0-8.534-3.832-8.534-8.534c0-4.702,3.823-8.534,8.534-8.534s8.534,3.832,8.534,8.534    C418.165,107.101,414.342,110.932,409.631,110.932z" data-original="#000000" class="active-path" data-old_color="#000000"/>
	</g>
</g><g>
	<g>
		
			<rect x="328.558" y="80.031" transform="matrix(0.7071 -0.7071 0.7071 0.7071 29.3397 267.1033)" width="17.067" height="36.208" data-original="#000000" class="active-path" data-old_color="#000000"/>
	</g>
</g><g>
	<g>
		
			<rect x="307.219" y="103.869" transform="matrix(0.7071 -0.7071 0.7071 0.7071 1.9673 260.7621)" width="17.067" height="48.275" data-original="#000000" class="active-path" data-old_color="#000000"/>
	</g>
</g><g>
	<g>
		
			<rect x="277.356" y="131.227" transform="matrix(0.7071 -0.7071 0.7071 0.7071 -21.8578 245.8932)" width="17.067" height="36.208" data-original="#000000" class="active-path" data-old_color="#000000"/>
	</g>
</g><g>
	<g>
		
			<rect x="256.016" y="155.056" transform="matrix(0.7071 -0.7071 0.7071 0.7071 -49.2241 239.5496)" width="17.067" height="48.275" data-original="#000000" class="active-path" data-old_color="#000000"/>
	</g>
</g><g>
	<g>
		
			<rect x="226.153" y="182.423" transform="matrix(0.7071 -0.7071 0.7071 0.7071 -73.0557 224.6825)" width="17.067" height="36.208" data-original="#000000" class="active-path" data-old_color="#000000"/>
	</g>
</g><g>
	<g>
		
			<rect x="204.814" y="206.252" transform="matrix(0.7071 -0.7071 0.7071 0.7071 -100.4218 218.3388)" width="17.067" height="48.275" data-original="#000000" class="active-path" data-old_color="#000000"/>
	</g>
</g><g>
	<g>
		<rect x="174.946" y="233.61" transform="matrix(0.707 -0.7072 0.7072 0.707 -124.2531 203.5083)" width="17.067" height="36.2" data-original="#000000" class="active-path" data-old_color="#000000"/>
	</g>
</g><g>
	<g>
		
			<rect x="153.611" y="257.465" transform="matrix(0.7071 -0.7071 0.7071 0.7071 -151.6316 197.133)" width="17.067" height="48.275" data-original="#000000" class="active-path" data-old_color="#000000"/>
	</g>
</g><g>
	<g>
		
			<rect x="123.748" y="284.831" transform="matrix(0.7071 -0.7071 0.7071 0.7071 -175.463 182.2643)" width="17.067" height="36.208" data-original="#000000" class="active-path" data-old_color="#000000"/>
	</g>
</g><g>
	<g>
		
			<rect x="102.409" y="308.669" transform="matrix(0.7071 -0.7071 0.7071 0.7071 -202.835 175.9239)" width="17.067" height="48.275" data-original="#000000" class="active-path" data-old_color="#000000"/>
	</g>
</g><g>
	<g>
		
			<rect x="72.564" y="336.045" transform="matrix(0.7071 -0.7071 0.7071 0.7071 -226.6681 161.0716)" width="17.067" height="36.208" data-original="#000000" class="active-path" data-old_color="#000000"/>
	</g>
</g><g>
	<g>
		
			<rect x="51.206" y="359.873" transform="matrix(0.7071 -0.7071 0.7071 0.7071 -254.0397 154.7172)" width="17.067" height="48.275" data-original="#000000" class="active-path" data-old_color="#000000"/>
	</g>
</g></g> </symbol><symbol id="truck" viewBox="0 0 512 512"><g><g>
	<g>
		<path d="M119.467,337.067c-28.237,0-51.2,22.963-51.2,51.2c0,28.237,22.963,51.2,51.2,51.2s51.2-22.963,51.2-51.2    C170.667,360.03,147.703,337.067,119.467,337.067z M119.467,422.4c-18.825,0-34.133-15.309-34.133-34.133    c0-18.825,15.309-34.133,34.133-34.133s34.133,15.309,34.133,34.133C153.6,407.091,138.291,422.4,119.467,422.4z" data-original="#000000" class="active-path" data-old_color="#000000"/>
	</g>
</g><g>
	<g>
		<path d="M409.6,337.067c-28.237,0-51.2,22.963-51.2,51.2c0,28.237,22.963,51.2,51.2,51.2c28.237,0,51.2-22.963,51.2-51.2    C460.8,360.03,437.837,337.067,409.6,337.067z M409.6,422.4c-18.825,0-34.133-15.309-34.133-34.133    c0-18.825,15.309-34.133,34.133-34.133c18.825,0,34.133,15.309,34.133,34.133C443.733,407.091,428.425,422.4,409.6,422.4z" data-original="#000000" class="active-path" data-old_color="#000000"/>
	</g>
</g><g>
	<g>
		<path d="M510.643,289.784l-76.8-119.467c-1.57-2.441-4.275-3.917-7.177-3.917H332.8c-4.719,0-8.533,3.823-8.533,8.533v213.333    c0,4.719,3.814,8.533,8.533,8.533h34.133v-17.067h-25.6V183.467h80.674l72.926,113.442v82.825h-42.667V396.8h51.2    c4.719,0,8.533-3.814,8.533-8.533V294.4C512,292.77,511.531,291.157,510.643,289.784z" data-original="#000000" class="active-path" data-old_color="#000000"/>
	</g>
</g><g>
	<g>
		<path d="M375.467,277.333V217.6h68.267v-17.067h-76.8c-4.719,0-8.533,3.823-8.533,8.533v76.8c0,4.719,3.814,8.533,8.533,8.533h128    v-17.067H375.467z" data-original="#000000" class="active-path" data-old_color="#000000"/>
	</g>
</g><g>
	<g>
		<path d="M332.8,106.667H8.533C3.823,106.667,0,110.49,0,115.2v273.067c0,4.719,3.823,8.533,8.533,8.533H76.8v-17.067H17.067v-256    h307.2v256H162.133V396.8H332.8c4.719,0,8.533-3.814,8.533-8.533V115.2C341.333,110.49,337.519,106.667,332.8,106.667z" data-original="#000000" class="active-path" data-old_color="#000000"/>
	</g>
</g><g>
	<g>
		<rect x="8.533" y="345.6" width="51.2" height="17.067" data-original="#000000" class="active-path" data-old_color="#000000"/>
	</g>
</g><g>
	<g>
		<rect x="179.2" y="345.6" width="145.067" height="17.067" data-original="#000000" class="active-path" data-old_color="#000000"/>
	</g>
</g><g>
	<g>
		<rect x="469.333" y="345.6" width="34.133" height="17.067" data-original="#000000" class="active-path" data-old_color="#000000"/>
	</g>
</g><g>
	<g>
		<rect x="34.133" y="140.8" width="298.667" height="17.067" data-original="#000000" class="active-path" data-old_color="#000000"/>
	</g>
</g><g>
	<g>
		<rect x="110.933" y="379.733" width="17.067" height="17.067" data-original="#000000" class="active-path" data-old_color="#000000"/>
	</g>
</g><g>
	<g>
		<rect x="401.067" y="379.733" width="17.067" height="17.067" data-original="#000000" class="active-path" data-old_color="#000000"/>
	</g>
</g><g>
	<g>
		<rect x="34.133" y="72.533" width="119.467" height="17.067" data-original="#000000" class="active-path" data-old_color="#000000"/>
	</g>
</g><g>
	<g>
		<rect y="72.533" width="17.067" height="17.067" data-original="#000000" class="active-path" data-old_color="#000000"/>
	</g>
</g></g> </symbol><symbol id="watch" viewBox="-100 0 480 480"><g><path d="m264 216h-10.335938c-3.476562-18.152344-10.871093-35.332031-21.664062-50.335938v-61.664062c0-4.417969-3.582031-8-8-8h-8v-88c0-4.417969-3.582031-8-8-8h-160c-4.417969 0-8 3.582031-8 8v88h-8c-4.417969 0-8 3.582031-8 8v61.664062c-32 44.390626-32 104.28125 0 148.671876v61.664062c0 4.417969 3.582031 8 8 8h8v88c0 4.417969 3.582031 8 8 8h160c4.417969 0 8-3.582031 8-8v-88h8c4.417969 0 8-3.582031 8-8v-61.664062c10.792969-15.003907 18.1875-32.183594 21.664062-50.335938h10.335938c8.835938 0 16-7.164062 16-16v-16c0-8.835938-7.164062-16-16-16zm-48-104v35.289062c-4.976562-4.765624-10.324219-9.125-16-13.03125v-22.257812zm-160-96h144v80h-8c-4.417969 0-8 3.582031-8 8v21.078125c-35.296875-17.441406-76.703125-17.441406-112 0v-21.078125c0-4.417969-3.582031-8-8-8h-8zm0 96v22.257812c-5.675781 3.90625-11.023438 8.265626-16 13.03125v-35.289062zm-16 256v-35.289062c4.976562 4.765624 10.324219 9.125 16 13.03125v22.257812zm160 96h-144v-80h8c4.417969 0 8-3.582031 8-8v-21.078125c35.296875 17.441406 76.703125 17.441406 112 0v21.078125c0 4.417969 3.582031 8 8 8h8zm0-96v-22.257812c5.675781-3.90625 11.023438-8.265626 16-13.03125v35.289062zm-72-16c-61.855469 0-112-50.144531-112-112s50.144531-112 112-112 112 50.144531 112 112c-.066406 61.828125-50.171875 111.933594-112 112zm136-104h-8.40625c.167969-2.65625.40625-5.296875.40625-8s-.238281-5.34375-.40625-8h8.40625zm0 0" data-original="#000000" class="active-path" data-old_color="#000000"/><path d="m136 217.472656v-41.472656h-16v41.472656c-9.554688 3.378906-15.957031 12.394532-16 22.527344.015625 3.5625.835938 7.078125 2.398438 10.28125l-24.0625 24.0625 11.3125 11.3125 24.070312-24.054688c3.203125 1.5625 6.71875 2.382813 10.28125 2.398438 11.675781.023438 21.664062-8.378906 23.644531-19.886719 1.976563-11.507812-4.632812-22.761719-15.644531-26.640625zm-8 30.527344c-4.417969 0-8-3.582031-8-8s3.582031-8 8-8 8 3.582031 8 8-3.582031 8-8 8zm0 0" data-original="#000000" class="active-path" data-old_color="#000000"/><path d="m128 136c-57.4375 0-104 46.5625-104 104s46.5625 104 104 104 104-46.5625 104-104c-.066406-57.410156-46.589844-103.933594-104-104zm0 192c-48.601562 0-88-39.398438-88-88s39.398438-88 88-88 88 39.398438 88 88c-.058594 48.578125-39.421875 87.941406-88 88zm0 0" data-original="#000000" class="active-path" data-old_color="#000000"/><path d="m80 48h96v16h-96zm0 0" data-original="#000000" class="active-path" data-old_color="#000000"/><path d="m80 416h96v16h-96zm0 0" data-original="#000000" class="active-path" data-old_color="#000000"/></g> </symbol><symbol id="down-arrow" viewBox="0 0 21.825 21.825"><g><path d="M16.791,13.254c0.444-0.444,1.143-0.444,1.587,0c0.429,0.444,0.429,1.143,0,1.587l-6.65,6.651  c-0.206,0.206-0.492,0.333-0.809,0.333c-0.317,0-0.603-0.127-0.81-0.333l-6.65-6.651c-0.444-0.444-0.444-1.143,0-1.587  s1.143-0.444,1.587,0l4.746,4.762V1.111C9.791,0.492,10.299,0,10.918,0c0.619,0,1.111,0.492,1.111,1.111v16.904L16.791,13.254z" data-original="#1E201D" class="active-path" data-old_color="#1E201D"/></g> </symbol><symbol id="fb" viewBox="0 0 96.124 96.123"><g><g>
	<path d="M72.089,0.02L59.624,0C45.62,0,36.57,9.285,36.57,23.656v10.907H24.037c-1.083,0-1.96,0.878-1.96,1.961v15.803   c0,1.083,0.878,1.96,1.96,1.96h12.533v39.876c0,1.083,0.877,1.96,1.96,1.96h16.352c1.083,0,1.96-0.878,1.96-1.96V54.287h14.654   c1.083,0,1.96-0.877,1.96-1.96l0.006-15.803c0-0.52-0.207-1.018-0.574-1.386c-0.367-0.368-0.867-0.575-1.387-0.575H56.842v-9.246   c0-4.444,1.059-6.7,6.848-6.7l8.397-0.003c1.082,0,1.959-0.878,1.959-1.96V1.98C74.046,0.899,73.17,0.022,72.089,0.02z" data-original="#000000" class="active-path" data-old_color="#000000"/>
</g></g> </symbol><symbol id="twitter" viewBox="0 0 612 612">
  <g>
    <g>
      <path d="M612,116.258c-22.525,9.981-46.694,16.75-72.088,19.772c25.929-15.527,45.777-40.155,55.184-69.411
			c-24.322,14.379-51.169,24.82-79.775,30.48c-22.907-24.437-55.49-39.658-91.63-39.658c-69.334,0-125.551,56.217-125.551,125.513
			c0,9.828,1.109,19.427,3.251,28.606C197.065,206.32,104.556,156.337,42.641,80.386c-10.823,18.51-16.98,40.078-16.98,63.101
			c0,43.559,22.181,81.993,55.835,104.479c-20.575-0.688-39.926-6.348-56.867-15.756v1.568c0,60.806,43.291,111.554,100.693,123.104
			c-10.517,2.83-21.607,4.398-33.08,4.398c-8.107,0-15.947-0.803-23.634-2.333c15.985,49.907,62.336,86.199,117.253,87.194
			c-42.947,33.654-97.099,53.655-155.916,53.655c-10.134,0-20.116-0.612-29.944-1.721c55.567,35.681,121.536,56.485,192.438,56.485
			c230.948,0,357.188-191.291,357.188-357.188l-0.421-16.253C573.872,163.526,595.211,141.422,612,116.258z"/>
    </g>
  </g>
  <g/>
  <g/>
  <g/>
  <g/>
  <g/>
  <g/>
  <g/>
  <g/>
  <g/>
  <g/>
  <g/>
  <g/>
  <g/>
  <g/>
  <g/>
</symbol><symbol id="vk" viewBox="0 0 24 14"><g><g transform="translate(-470 -7086)"><use xlink:href="#laqha"/></g></g></symbol></svg>