<?xml version="1.0"?>
<svg xmlns="http://www.w3.org/2000/svg" height="512px" viewBox="-100 0 480 480" width="512px"><g><path d="m264 216h-10.335938c-3.476562-18.152344-10.871093-35.332031-21.664062-50.335938v-61.664062c0-4.417969-3.582031-8-8-8h-8v-88c0-4.417969-3.582031-8-8-8h-160c-4.417969 0-8 3.582031-8 8v88h-8c-4.417969 0-8 3.582031-8 8v61.664062c-32 44.390626-32 104.28125 0 148.671876v61.664062c0 4.417969 3.582031 8 8 8h8v88c0 4.417969 3.582031 8 8 8h160c4.417969 0 8-3.582031 8-8v-88h8c4.417969 0 8-3.582031 8-8v-61.664062c10.792969-15.003907 18.1875-32.183594 21.664062-50.335938h10.335938c8.835938 0 16-7.164062 16-16v-16c0-8.835938-7.164062-16-16-16zm-48-104v35.289062c-4.976562-4.765624-10.324219-9.125-16-13.03125v-22.257812zm-160-96h144v80h-8c-4.417969 0-8 3.582031-8 8v21.078125c-35.296875-17.441406-76.703125-17.441406-112 0v-21.078125c0-4.417969-3.582031-8-8-8h-8zm0 96v22.257812c-5.675781 3.90625-11.023438 8.265626-16 13.03125v-35.289062zm-16 256v-35.289062c4.976562 4.765624 10.324219 9.125 16 13.03125v22.257812zm160 96h-144v-80h8c4.417969 0 8-3.582031 8-8v-21.078125c35.296875 17.441406 76.703125 17.441406 112 0v21.078125c0 4.417969 3.582031 8 8 8h8zm0-96v-22.257812c5.675781-3.90625 11.023438-8.265626 16-13.03125v35.289062zm-72-16c-61.855469 0-112-50.144531-112-112s50.144531-112 112-112 112 50.144531 112 112c-.066406 61.828125-50.171875 111.933594-112 112zm136-104h-8.40625c.167969-2.65625.40625-5.296875.40625-8s-.238281-5.34375-.40625-8h8.40625zm0 0" data-original="#000000" class="active-path" data-old_color="#000000" fill="#BAAB8B"/><path d="m136 217.472656v-41.472656h-16v41.472656c-9.554688 3.378906-15.957031 12.394532-16 22.527344.015625 3.5625.835938 7.078125 2.398438 10.28125l-24.0625 24.0625 11.3125 11.3125 24.070312-24.054688c3.203125 1.5625 6.71875 2.382813 10.28125 2.398438 11.675781.023438 21.664062-8.378906 23.644531-19.886719 1.976563-11.507812-4.632812-22.761719-15.644531-26.640625zm-8 30.527344c-4.417969 0-8-3.582031-8-8s3.582031-8 8-8 8 3.582031 8 8-3.582031 8-8 8zm0 0" data-original="#000000" class="active-path" data-old_color="#000000" fill="#BAAB8B"/><path d="m128 136c-57.4375 0-104 46.5625-104 104s46.5625 104 104 104 104-46.5625 104-104c-.066406-57.410156-46.589844-103.933594-104-104zm0 192c-48.601562 0-88-39.398438-88-88s39.398438-88 88-88 88 39.398438 88 88c-.058594 48.578125-39.421875 87.941406-88 88zm0 0" data-original="#000000" class="active-path" data-old_color="#000000" fill="#BAAB8B"/><path d="m80 48h96v16h-96zm0 0" data-original="#000000" class="active-path" data-old_color="#000000" fill="#BAAB8B"/><path d="m80 416h96v16h-96zm0 0" data-original="#000000" class="active-path" data-old_color="#000000" fill="#BAAB8B"/></g> </svg>
