<svg xmlns="http://www.w3.org/2000/svg" xmlns:xlink="http://www.w3.org/1999/xlink" width="24" height="14" viewBox="0 0 24 14"><defs><path id="laqha" d="M493.03 7086.95c.162-.547 0-.95-.779-.95h-2.577c-.656 0-.958.346-1.12.73 0 0-1.312 3.199-3.167 5.272-.6.6-.875.792-1.203.792-.162 0-.411-.192-.411-.739v-5.106c0-.656-.184-.949-.727-.949h-4.051c-.411 0-.656.306-.656.59 0 .622.927.766 1.024 2.516v3.798c0 .831-.15.984-.477.984-.875 0-3.002-3.211-4.262-6.886-.253-.713-.503-1.002-1.163-1.002h-2.577c-.735 0-.884.346-.884.73 0 .683.875 4.074 4.073 8.554 2.13 3.058 5.132 4.716 7.862 4.716 1.64 0 1.842-.368 1.842-1.002 0-2.922-.149-3.198.674-3.198.38 0 1.037.192 2.568 1.667 1.75 1.75 2.039 2.533 3.019 2.533h2.576c.735 0 1.107-.368.893-1.094-.49-1.527-3.802-4.668-3.95-4.878-.381-.49-.272-.709 0-1.146.004-.005 3.15-4.432 3.473-5.933z"/></defs><g><g transform="translate(-470 -7086)"><use fill="#fff" xlink:href="#laqha"/></g></g></svg>